<?xml version="1.0" encoding="utf-8"?>
<!-- Generated by IcoMoon.io -->
<!DOCTYPE svg PUBLIC "-//W3C//DTD SVG 1.1//EN" "http://www.w3.org/Graphics/SVG/1.1/DTD/svg11.dtd">
<svg version="1.1" xmlns="http://www.w3.org/2000/svg" xmlns:xlink="http://www.w3.org/1999/xlink" width="1024" height="1024" viewBox="0 0 1024 1024">
<g id="icomoon-ignore">
</g>
<path d="M528 96.896c-238.592 0-432 193.408-432 432s193.408 432 432 432c238.56 0 432-193.408 432-432s-193.44-432-432-432zM525.824 898.368c-203.232 0-368-164.768-368-368 0-203.264 164.736-368 368-368 203.2 0 368 164.736 368 368 0 203.232-164.832 368-368 368zM582.475 336.289c-51.744 0.069-99.626 27.384-126.021 71.889-6.799-1.554-13.749-2.351-20.723-2.377-47.33 0.054-87.339 35.074-93.658 81.98-4.157-0.556-8.345-0.851-12.539-0.883-55.453 0-100.407 44.953-100.406 100.406s44.953 100.407 100.406 100.406c0.539-0.024 1.078-0.052 1.617-0.084 0.154 0.050 0.313 0.084 0.479 0.084h361.15c0.093 0 0.18-0.021 0.27-0.037 0.473 0.016 0.945 0.028 1.418 0.037 55.453 0 100.407-44.953 100.406-100.406-0.056-42.195-26.488-79.853-66.152-94.248 0.281-3.333 0.449-6.675 0.502-10.020 0.001-81.047-65.701-146.749-146.748-146.748zM583.318 378.688h0.002c57.541 0 104.187 46.646 104.186 104.188-0.028 11.106-1.831 22.136-5.342 32.672 0.445-0.020 0.89-0.035 1.336-0.047 39.027 0.001 70.664 31.639 70.664 70.666s-31.637 70.665-70.664 70.666l-0.049-0.004-0.012 0.004h-340.225c-0.106 0-0.207-0.026-0.309-0.051-38.456-0.768-69.234-32.152-69.254-70.615 0-39.027 31.637-70.665 70.664-70.666 11.784 0.866 21.461 2.476 32.299 7.887-0.057-1.008-0.094-2.016-0.109-3.025 0-40.496 32.828-73.324 73.324-73.324 11.543 0.027 22.917 2.779 33.195 8.031 12.487-45.093 53.503-76.33 100.293-76.381z"></path>
</svg>
